# Blender 4.1.1
# www.blender.org
mtllib sparkslab_icon.mtl
o Sparkslab_Icon
v 55.100433 -0.000008 -101.700493
v 69.444435 -0.000007 -87.360832
v 37.164288 -0.000004 -55.087502
v 55.100433 -0.000003 -37.155140
v 31.275843 -0.000002 -32.294052
v 30.183100 -0.000003 -33.386562
v 29.090364 -0.000003 -34.479069
v 27.997633 -0.000003 -35.571571
v 26.904919 -0.000003 -36.664051
v 25.812220 -0.000003 -37.756523
v 24.719547 -0.000003 -38.848969
v 23.626896 -0.000003 -39.941383
v 22.534281 -0.000003 -41.033768
v 21.441702 -0.000003 -42.126118
v 20.349159 -0.000003 -43.218426
v 19.256666 -0.000003 -44.310696
v 18.164221 -0.000003 -45.402908
v 16.943378 -0.000004 -46.801174
v 15.944506 -0.000004 -48.317173
v 15.167603 -0.000004 -49.927361
v 14.612673 -0.000004 -51.608204
v 14.279716 -0.000004 -53.336147
v 14.168731 -0.000004 -55.087669
v 14.279716 -0.000004 -56.839207
v 14.612673 -0.000004 -58.567230
v 15.167603 -0.000005 -60.248211
v 15.944506 -0.000005 -61.858582
v 16.943380 -0.000005 -63.374825
v 18.164221 -0.000005 -64.773376
v 21.242241 -0.000005 -67.850723
v 24.320257 -0.000005 -70.928032
v 27.398275 -0.000006 -74.005287
v 30.476294 -0.000006 -77.082527
v 33.554310 -0.000006 -80.159744
v 36.632332 -0.000006 -83.236938
v 39.710354 -0.000007 -86.314148
v 42.788372 -0.000007 -89.391373
v 45.866390 -0.000007 -92.468597
v 48.944405 -0.000007 -95.545860
v 52.022423 -0.000007 -98.623169
v 52.022423 6.422675 -98.623169
v 69.444435 6.422676 -87.360832
v 55.100433 6.422675 -101.700493
v 48.944405 6.422676 -95.545860
v 45.866390 6.422676 -92.468597
v 42.788372 6.422676 -89.391373
v 39.710354 6.422676 -86.314148
v 37.164288 6.422678 -55.087502
v 36.632332 6.422677 -83.236938
v 33.554310 6.422677 -80.159744
v 30.476294 6.422677 -77.082527
v 27.398275 6.422677 -74.005287
v 24.320257 6.422678 -70.928032
v 21.242241 6.422678 -67.850723
v 18.164221 6.422678 -64.773376
v 16.943380 6.422678 -63.374825
v 15.944506 6.422678 -61.858582
v 15.167603 6.422678 -60.248211
v 14.612673 6.422678 -58.567230
v 14.279716 6.422678 -56.839207
v 14.168731 6.422678 -55.087669
v 14.279716 6.422679 -53.336147
v 55.100433 6.422680 -37.155140
v 14.612673 6.422679 -51.608204
v 15.167603 6.422679 -49.927361
v 15.944506 6.422679 -48.317173
v 16.943378 6.422679 -46.801174
v 18.164221 6.422679 -45.402908
v 19.256666 6.422679 -44.310696
v 20.349159 6.422679 -43.218426
v 21.441702 6.422679 -42.126118
v 22.534281 6.422680 -41.033768
v 23.626896 6.422680 -39.941383
v 24.719547 6.422680 -38.848969
v 25.812220 6.422680 -37.756523
v 26.904919 6.422680 -36.664051
v 31.275843 6.422680 -32.294052
v 27.997633 6.422680 -35.571571
v 29.090364 6.422680 -34.479069
v 30.183100 6.422680 -33.386562
v 55.100433 -0.000001 -8.474503
v 40.757729 -0.000002 -22.814169
v 73.037872 -0.000004 -55.087502
v 55.101727 -0.000006 -73.019859
v 78.926308 -0.000006 -77.880936
v 80.019028 -0.000006 -76.788460
v 81.111710 -0.000006 -75.696022
v 82.204346 -0.000006 -74.603607
v 83.296944 -0.000006 -73.511230
v 84.389534 -0.000005 -72.418877
v 85.482117 -0.000005 -71.326515
v 86.574707 -0.000005 -70.234177
v 87.667297 -0.000005 -69.141815
v 88.759895 -0.000005 -68.049438
v 89.852531 -0.000005 -66.957024
v 90.945206 -0.000005 -65.864586
v 92.037941 -0.000005 -64.772095
v 93.258789 -0.000005 -63.373833
v 94.257652 -0.000005 -61.857826
v 95.034554 -0.000005 -60.247643
v 95.589485 -0.000004 -58.566795
v 95.922455 -0.000004 -56.838848
v 96.033432 -0.000004 -55.087337
v 95.922455 -0.000004 -53.335789
v 95.589485 -0.000004 -51.607761
v 95.034554 -0.000004 -49.926788
v 94.257652 -0.000004 -48.316418
v 93.258789 -0.000004 -46.800175
v 92.037941 -0.000003 -45.401619
v 88.959915 -0.000003 -42.324257
v 85.881897 -0.000003 -39.246895
v 82.803894 -0.000003 -36.169540
v 79.725868 -0.000002 -33.092197
v 76.647865 -0.000002 -30.014877
v 73.569847 -0.000002 -26.937574
v 70.491821 -0.000002 -23.860304
v 67.413818 -0.000002 -20.783062
v 64.335793 -0.000001 -17.705854
v 61.257786 -0.000001 -14.628690
v 58.179771 -0.000001 -11.551571
v 55.101727 -0.000001 -8.474503
v 55.101700 -0.000001 -8.474503
v 55.101627 -0.000001 -8.474503
v 55.101524 -0.000001 -8.474503
v 55.101395 -0.000001 -8.474503
v 55.101238 -0.000001 -8.474503
v 55.101078 -0.000001 -8.474503
v 55.100918 -0.000001 -8.474503
v 55.100765 -0.000001 -8.474503
v 55.100632 -0.000001 -8.474503
v 55.100533 -0.000001 -8.474503
v 55.100460 -0.000001 -8.474503
v 55.101727 6.422677 -73.019859
v 80.019028 6.422677 -76.788460
v 78.926308 6.422677 -77.880936
v 81.111710 6.422677 -75.696022
v 82.204346 6.422677 -74.603607
v 83.296944 6.422677 -73.511230
v 84.389534 6.422678 -72.418877
v 73.037872 6.422678 -55.087502
v 85.482117 6.422678 -71.326515
v 86.574707 6.422678 -70.234177
v 87.667297 6.422678 -69.141815
v 88.759895 6.422678 -68.049438
v 89.852531 6.422678 -66.957024
v 90.945206 6.422678 -65.864586
v 92.037941 6.422678 -64.772095
v 93.258789 6.422678 -63.373833
v 94.257652 6.422678 -61.857826
v 95.034554 6.422678 -60.247643
v 95.589485 6.422678 -58.566795
v 95.922455 6.422678 -56.838848
v 96.033432 6.422678 -55.087337
v 40.757729 6.422681 -22.814169
v 95.922455 6.422679 -53.335789
v 95.589485 6.422679 -51.607761
v 95.034554 6.422679 -49.926788
v 94.257652 6.422679 -48.316418
v 93.258789 6.422679 -46.800175
v 92.037941 6.422679 -45.401619
v 88.959915 6.422679 -42.324257
v 85.881897 6.422680 -39.246895
v 82.803894 6.422680 -36.169540
v 79.725868 6.422680 -33.092197
v 76.647865 6.422680 -30.014877
v 73.569847 6.422681 -26.937574
v 70.491821 6.422681 -23.860304
v 67.413818 6.422681 -20.783062
v 55.100433 6.422682 -8.474505
v 64.335793 6.422681 -17.705854
v 61.257786 6.422682 -14.628691
v 58.179771 6.422682 -11.551573
v 55.101727 6.422682 -8.474505
v 55.100460 6.422682 -8.474505
v 55.100533 6.422682 -8.474505
v 55.100632 6.422682 -8.474505
v 55.100765 6.422682 -8.474505
v 55.100918 6.422682 -8.474505
v 55.101078 6.422682 -8.474505
v 55.101238 6.422682 -8.474505
v 55.101395 6.422682 -8.474505
v 55.101524 6.422682 -8.474505
v 55.101627 6.422682 -8.474505
v 55.101700 6.422682 -8.474505
vn -0.0000 1.0000 -0.0000
vn 1.0000 -0.0000 -0.0000
vn -0.9239 -0.0000 0.3827
vn -0.4999 0.7071 0.5001
vn -0.2634 -0.0000 -0.9647
vn -1.0000 -0.0000 -0.0000
vn -0.2272 0.6144 0.7556
vn -0.0000 -1.0000 -0.0000
vn 0.3828 -0.0000 0.9238
vn -0.4999 -0.7071 0.5000
vn -0.3826 -0.0000 0.9239
vn -0.2272 -0.6145 0.7555
vn 0.7070 -0.0000 -0.7072
vn -0.7070 -0.0000 -0.7072
vn 0.7070 -0.0000 0.7072
vn -0.7534 -0.0000 -0.6576
vn -0.7533 -0.0000 -0.6576
vn -0.8351 -0.0000 -0.5501
vn -0.9007 -0.0000 -0.4345
vn -0.9496 -0.0000 -0.3135
vn -0.9819 -0.0000 -0.1892
vn -0.9980 -0.0000 -0.0632
vn -0.9980 -0.0000 0.0632
vn -0.9819 -0.0000 0.1892
vn -0.9496 -0.0000 0.3135
vn -0.9006 -0.0000 0.4346
vn -0.8350 -0.0000 0.5502
vn -0.7533 -0.0000 0.6577
vn -0.7070 -0.0000 0.7072
vn 0.1999 -0.0000 0.9798
vn -0.0006 1.0000 -0.0001
vn 0.0003 1.0000 0.0016
vn 0.5000 0.7076 0.4993
vn -0.2971 0.6304 0.7172
vn -0.0003 1.0000 -0.0018
vn -0.0000 -0.0000 1.0000
vn 0.2972 0.6305 0.7170
vn -0.2970 0.6304 0.7172
vn -0.0000 -0.0000 -1.0000
vn -0.0000 0.0001 1.0000
vn 0.5000 -0.7070 0.5001
vn -0.2970 -0.6304 0.7172
vn 0.2971 -0.6303 0.7173
vn -0.1999 -0.0000 -0.9798
vn 0.7533 -0.0000 -0.6577
vn 0.8350 -0.0000 -0.5502
vn 0.9006 -0.0000 -0.4346
vn 0.9496 -0.0000 -0.3135
vn 0.9819 -0.0000 -0.1892
vn 0.9980 -0.0000 -0.0632
vn 0.9980 -0.0000 0.0632
vn 0.9819 -0.0000 0.1892
vn 0.9496 -0.0000 0.3135
vn 0.9007 -0.0000 0.4345
vn 0.8351 -0.0000 0.5501
vn 0.7533 -0.0000 0.6576
vt 1.000000 0.000000
vt 0.025641 0.000000
vt 0.000000 0.000000
vt 0.974359 0.000000
vt 0.948718 0.000000
vt 0.923077 0.000000
vt 0.897436 0.000000
vt 0.051282 0.000000
vt 0.871795 0.000000
vt 0.846154 0.000000
vt 0.820513 0.000000
vt 0.794872 0.000000
vt 0.769231 0.000000
vt 0.743590 0.000000
vt 0.717949 0.000000
vt 0.692308 0.000000
vt 0.666667 0.000000
vt 0.641026 0.000000
vt 0.615385 0.000000
vt 0.589744 0.000000
vt 0.564103 0.000000
vt 0.538462 0.000000
vt 0.076923 0.000000
vt 0.512821 0.000000
vt 0.487179 0.000000
vt 0.461538 0.000000
vt 0.435897 0.000000
vt 0.410256 0.000000
vt 0.384615 0.000000
vt 0.358974 0.000000
vt 0.333333 0.000000
vt 0.307692 0.000000
vt 0.282051 0.000000
vt 0.256410 0.000000
vt 0.230769 0.000000
vt 0.205128 0.000000
vt 0.102564 0.000000
vt 0.179487 0.000000
vt 0.153846 0.000000
vt 0.128205 0.000000
vt 0.058824 0.000000
vt 0.098039 0.000000
vt 0.078431 0.000000
vt 0.117647 0.000000
vt 0.137255 0.000000
vt 0.156863 0.000000
vt 0.176471 0.000000
vt 0.039216 0.000000
vt 0.196078 0.000000
vt 0.215686 0.000000
vt 0.235294 0.000000
vt 0.254902 0.000000
vt 0.274510 0.000000
vt 0.294118 0.000000
vt 0.313726 0.000000
vt 0.352941 0.000000
vt 0.372549 0.000000
vt 0.392157 0.000000
vt 0.411765 0.000000
vt 0.431373 0.000000
vt 0.019608 0.000000
vt 0.450980 0.000000
vt 0.470588 0.000000
vt 0.490196 0.000000
vt 0.509804 0.000000
vt 0.529412 0.000000
vt 0.549020 0.000000
vt 0.568627 0.000000
vt 0.588235 0.000000
vt 0.607843 0.000000
vt 0.627451 0.000000
vt 0.647059 0.000000
vt 0.686275 0.000000
vt 0.705882 0.000000
vt 0.725490 0.000000
vt 0.745098 0.000000
vt 0.764706 0.000000
vt 0.784314 0.000000
vt 0.980392 0.000000
vt 0.960784 0.000000
vt 0.941176 0.000000
vt 0.921569 0.000000
vt 0.901961 0.000000
vt 0.882353 0.000000
vt 0.862745 0.000000
vt 0.843137 0.000000
vt 0.823529 0.000000
vt 0.803922 0.000000
s 1
usemtl white
f 41/1/1 42/2/1 43/3/1
f 44/4/1 42/2/1 41/1/1
f 45/5/1 42/2/1 44/4/1
f 46/6/1 42/2/1 45/5/1
f 47/7/1 42/2/1 46/6/1
f 47/7/1 48/8/1 42/2/1
f 49/9/1 48/8/1 47/7/1
f 50/10/1 48/8/1 49/9/1
f 51/11/1 48/8/1 50/10/1
f 52/12/1 48/8/1 51/11/1
f 53/13/1 48/8/1 52/12/1
f 54/14/1 48/8/1 53/13/1
f 55/15/1 48/8/1 54/14/1
f 56/16/1 48/8/1 55/15/1
f 57/17/1 48/8/1 56/16/1
f 58/18/1 48/8/1 57/17/1
f 59/19/1 48/8/1 58/18/1
f 60/20/1 48/8/1 59/19/1
f 61/21/1 48/8/1 60/20/1
f 62/22/1 48/8/1 61/21/1
f 62/22/1 63/23/1 48/8/1
f 64/24/1 63/23/1 62/22/1
f 65/25/1 63/23/1 64/24/1
f 66/26/1 63/23/1 65/25/1
f 67/27/1 63/23/1 66/26/1
f 68/28/1 63/23/1 67/27/1
f 69/29/1 63/23/1 68/28/1
f 70/30/1 63/23/1 69/29/1
f 71/31/1 63/23/1 70/30/1
f 72/32/1 63/23/1 71/31/1
f 73/33/1 63/23/1 72/32/1
f 74/34/1 63/23/1 73/33/1
f 75/35/1 63/23/1 74/34/1
f 76/36/1 63/23/1 75/35/1
f 76/36/1 77/37/1 63/23/1
f 78/38/2 79/39/3 76/36/4
f 79/39/5 80/40/3 76/36/4
f 80/40/6 77/37/7 76/36/4
f 40/1/8 1/3/8 2/2/8
f 39/4/8 40/1/8 2/2/8
f 38/5/8 39/4/8 2/2/8
f 37/6/8 38/5/8 2/2/8
f 36/7/8 37/6/8 2/2/8
f 36/7/8 2/2/8 3/8/8
f 35/9/8 36/7/8 3/8/8
f 34/10/8 35/9/8 3/8/8
f 33/11/8 34/10/8 3/8/8
f 32/12/8 33/11/8 3/8/8
f 31/13/8 32/12/8 3/8/8
f 30/14/8 31/13/8 3/8/8
f 29/15/8 30/14/8 3/8/8
f 28/16/8 29/15/8 3/8/8
f 27/17/8 28/16/8 3/8/8
f 26/18/8 27/17/8 3/8/8
f 25/19/8 26/18/8 3/8/8
f 24/20/8 25/19/8 3/8/8
f 23/21/8 24/20/8 3/8/8
f 22/22/8 23/21/8 3/8/8
f 22/22/8 3/8/8 4/23/8
f 21/24/8 22/22/8 4/23/8
f 20/25/8 21/24/8 4/23/8
f 19/26/8 20/25/8 4/23/8
f 18/27/8 19/26/8 4/23/8
f 17/28/8 18/27/8 4/23/8
f 16/29/8 17/28/8 4/23/8
f 15/30/8 16/29/8 4/23/8
f 14/31/8 15/30/8 4/23/8
f 13/32/8 14/31/8 4/23/8
f 12/33/8 13/32/8 4/23/8
f 11/34/8 12/33/8 4/23/8
f 10/35/8 11/34/8 4/23/8
f 9/36/8 10/35/8 4/23/8
f 9/36/8 4/23/8 5/37/8
f 8/38/9 9/36/10 7/39/11
f 7/39/11 9/36/10 6/40/11
f 6/40/11 9/36/10 5/37/12
f 2/2/13 43/3/13 42/2/13
f 1/3/14 41/1/14 43/3/14
f 39/4/14 41/1/14 40/1/14
f 38/5/14 44/4/14 39/4/14
f 37/6/14 45/5/14 38/5/14
f 37/6/14 47/7/14 46/6/14
f 2/2/15 48/8/15 3/8/15
f 35/9/14 47/7/14 36/7/14
f 34/10/14 49/9/14 35/9/14
f 33/11/14 50/10/14 34/10/14
f 33/11/14 52/12/14 51/11/14
f 31/13/14 52/12/14 32/12/14
f 31/13/14 54/14/14 53/13/14
f 29/15/14 54/14/14 30/14/14
f 28/16/16 55/15/17 29/15/16
f 27/17/18 56/16/18 28/16/18
f 26/18/19 57/17/19 27/17/19
f 25/19/20 58/18/20 26/18/20
f 24/20/21 59/19/21 25/19/21
f 23/21/22 60/20/22 24/20/22
f 23/21/23 62/22/23 61/21/23
f 4/23/13 48/8/13 63/23/13
f 21/24/24 62/22/24 22/22/24
f 20/25/25 64/24/25 21/24/25
f 19/26/26 65/25/26 20/25/26
f 19/26/27 67/27/27 66/26/27
f 17/28/28 67/27/28 18/27/28
f 16/29/29 68/28/29 17/28/29
f 15/30/29 69/29/29 16/29/29
f 14/31/29 70/30/29 15/30/29
f 13/32/29 71/31/29 14/31/29
f 12/33/29 72/32/29 13/32/29
f 11/34/29 73/33/29 12/33/29
f 10/35/29 74/34/29 11/34/29
f 9/36/29 75/35/29 10/35/29
f 4/23/30 77/37/30 5/37/30
f 8/38/29 79/39/29 78/38/29
f 8/38/29 76/36/29 9/36/29
f 6/40/29 79/39/29 7/39/29
f 5/37/29 80/40/29 6/40/29
f 2/2/13 1/3/13 43/3/13
f 1/3/14 40/1/14 41/1/14
f 39/4/14 44/4/14 41/1/14
f 38/5/14 45/5/14 44/4/14
f 37/6/14 46/6/14 45/5/14
f 37/6/14 36/7/14 47/7/14
f 2/2/15 42/2/15 48/8/15
f 35/9/14 49/9/14 47/7/14
f 34/10/14 50/10/14 49/9/14
f 33/11/14 51/11/14 50/10/14
f 33/11/14 32/12/14 52/12/14
f 31/13/14 53/13/14 52/12/14
f 31/13/14 30/14/14 54/14/14
f 29/15/14 55/15/14 54/14/14
f 28/16/16 56/16/17 55/15/17
f 27/17/18 57/17/18 56/16/18
f 26/18/19 58/18/19 57/17/19
f 25/19/20 59/19/20 58/18/20
f 24/20/21 60/20/21 59/19/21
f 23/21/22 61/21/22 60/20/22
f 23/21/23 22/22/23 62/22/23
f 4/23/13 3/8/13 48/8/13
f 21/24/24 64/24/24 62/22/24
f 20/25/25 65/25/25 64/24/25
f 19/26/26 66/26/26 65/25/26
f 19/26/27 18/27/27 67/27/27
f 17/28/28 68/28/28 67/27/28
f 16/29/29 69/29/29 68/28/29
f 15/30/29 70/30/29 69/29/29
f 14/31/29 71/31/29 70/30/29
f 13/32/29 72/32/29 71/31/29
f 12/33/29 73/33/29 72/32/29
f 11/34/29 74/34/29 73/33/29
f 10/35/29 75/35/29 74/34/29
f 9/36/29 76/36/29 75/35/29
f 4/23/30 63/23/30 77/37/30
f 8/38/29 7/39/29 79/39/29
f 8/38/29 78/38/29 76/36/29
f 6/40/29 80/40/29 79/39/29
f 5/37/29 77/37/29 80/40/29
usemtl yellow
f 133/41/1 134/42/1 135/43/1
f 133/41/1 136/44/1 134/42/1
f 133/41/1 137/45/1 136/44/1
f 133/41/1 138/46/1 137/45/1
f 133/41/1 139/47/1 138/46/1
f 140/48/1 139/47/1 133/41/1
f 140/48/1 141/49/1 139/47/1
f 140/48/1 142/50/1 141/49/1
f 140/48/1 143/51/1 142/50/1
f 140/48/1 144/52/1 143/51/1
f 140/48/1 145/53/1 144/52/1
f 140/48/1 146/54/1 145/53/1
f 140/48/1 147/55/1 146/54/1
f 140/48/1 148/31/1 147/55/1
f 140/48/1 149/56/1 148/31/1
f 140/48/1 150/57/1 149/56/1
f 140/48/1 151/58/1 150/57/1
f 140/48/1 152/59/1 151/58/1
f 140/48/1 153/60/1 152/59/1
f 154/61/1 153/60/1 140/48/1
f 154/61/1 155/62/1 153/60/1
f 154/61/1 156/63/1 155/62/1
f 154/61/1 157/64/1 156/63/1
f 154/61/1 158/65/1 157/64/1
f 154/61/1 159/66/1 158/65/1
f 154/61/1 160/67/1 159/66/1
f 154/61/1 161/68/1 160/67/1
f 154/61/1 162/69/1 161/68/1
f 154/61/1 163/70/1 162/69/1
f 154/61/1 164/71/1 163/70/1
f 154/61/1 165/72/1 164/71/1
f 154/61/1 166/17/1 165/72/1
f 154/61/1 167/73/1 166/17/1
f 154/61/1 168/74/1 167/73/1
f 169/3/1 168/74/1 154/61/1
f 169/3/1 170/75/31 168/74/1
f 169/3/32 171/76/32 170/75/33
f 169/3/34 172/77/35 171/76/35
f 169/3/1 173/78/1 172/77/1
f 174/1/36 173/78/37 169/3/38
f 175/79/36 173/78/37 174/1/36
f 176/80/36 173/78/37 175/79/36
f 177/81/39 173/78/37 176/80/36
f 178/82/36 173/78/37 177/81/39
f 179/83/36 173/78/37 178/82/36
f 180/84/36 173/78/37 179/83/36
f 181/85/36 173/78/37 180/84/36
f 182/86/40 173/78/37 181/85/36
f 183/87/36 173/78/37 182/86/40
f 184/88/36 173/78/37 183/87/36
f 84/41/8 85/43/8 86/42/8
f 84/41/8 86/42/8 87/44/8
f 84/41/8 87/44/8 88/45/8
f 84/41/8 88/45/8 89/46/8
f 84/41/8 89/46/8 90/47/8
f 83/48/8 84/41/8 90/47/8
f 83/48/8 90/47/8 91/49/8
f 83/48/8 91/49/8 92/50/8
f 83/48/8 92/50/8 93/51/8
f 83/48/8 93/51/8 94/52/8
f 83/48/8 94/52/8 95/53/8
f 83/48/8 95/53/8 96/54/8
f 83/48/8 96/54/8 97/55/8
f 83/48/8 97/55/8 98/31/8
f 83/48/8 98/31/8 99/56/8
f 83/48/8 99/56/8 100/57/8
f 83/48/8 100/57/8 101/58/8
f 83/48/8 101/58/8 102/59/8
f 83/48/8 102/59/8 103/60/8
f 82/61/8 83/48/8 103/60/8
f 82/61/8 103/60/8 104/62/8
f 82/61/8 104/62/8 105/63/8
f 82/61/8 105/63/8 106/64/8
f 82/61/8 106/64/8 107/65/8
f 82/61/8 107/65/8 108/66/8
f 82/61/8 108/66/8 109/67/8
f 82/61/8 109/67/8 110/68/8
f 82/61/8 110/68/8 111/69/8
f 82/61/8 111/69/8 112/70/8
f 82/61/8 112/70/8 113/71/8
f 82/61/8 113/71/8 114/72/8
f 82/61/8 114/72/8 115/17/8
f 82/61/8 115/17/8 116/73/8
f 82/61/8 116/73/8 117/74/8
f 81/3/8 82/61/8 117/74/8
f 81/3/8 117/74/8 118/75/8
f 81/3/8 118/75/8 119/76/8
f 81/3/8 119/76/41 120/77/8
f 81/3/8 120/77/8 121/78/8
f 132/1/36 81/3/42 121/78/43
f 131/79/39 132/1/36 121/78/43
f 130/80/36 131/79/36 121/78/43
f 129/81/36 130/80/36 121/78/43
f 128/82/36 129/81/36 121/78/43
f 127/83/36 128/82/36 121/78/43
f 126/84/36 127/83/36 121/78/43
f 125/85/36 126/84/36 121/78/43
f 124/86/36 125/85/36 121/78/43
f 123/87/36 124/86/36 121/78/43
f 122/88/39 123/87/36 121/78/43
f 85/43/13 134/42/13 86/42/13
f 84/41/44 135/43/44 85/43/44
f 86/42/13 136/44/13 87/44/13
f 87/44/13 137/45/13 88/45/13
f 88/45/13 138/46/13 89/46/13
f 89/46/13 139/47/13 90/47/13
f 83/48/29 133/41/29 84/41/29
f 90/47/13 141/49/13 91/49/13
f 91/49/13 142/50/13 92/50/13
f 92/50/13 143/51/13 93/51/13
f 93/51/13 144/52/13 94/52/13
f 94/52/13 145/53/13 95/53/13
f 95/53/13 146/54/13 96/54/13
f 96/54/13 147/55/13 97/55/13
f 97/55/45 148/31/45 98/31/45
f 98/31/46 149/56/46 99/56/46
f 99/56/47 150/57/47 100/57/47
f 101/58/48 150/57/48 151/58/48
f 101/58/49 152/59/49 102/59/49
f 102/59/50 153/60/50 103/60/50
f 82/61/14 140/48/14 83/48/14
f 103/60/51 155/62/51 104/62/51
f 104/62/52 156/63/52 105/63/52
f 105/63/53 157/64/53 106/64/53
f 106/64/54 158/65/54 107/65/54
f 108/66/55 158/65/55 159/66/55
f 108/66/56 160/67/56 109/67/56
f 109/67/15 161/68/15 110/68/15
f 110/68/15 162/69/15 111/69/15
f 111/69/15 163/70/15 112/70/15
f 112/70/15 164/71/15 113/71/15
f 113/71/15 165/72/15 114/72/15
f 114/72/15 166/17/15 115/17/15
f 115/17/15 167/73/15 116/73/15
f 116/73/15 168/74/15 117/74/15
f 82/61/29 169/3/29 154/61/29
f 117/74/15 170/75/15 118/75/15
f 119/76/15 170/75/15 171/76/15
f 119/76/15 172/77/15 120/77/15
f 120/77/15 173/78/15 121/78/15
f 132/1/36 169/3/36 81/3/36
f 131/79/36 174/1/36 132/1/36
f 130/80/36 175/79/36 131/79/36
f 129/81/36 176/80/36 130/80/36
f 128/82/36 177/81/36 129/81/36
f 127/83/36 178/82/36 128/82/36
f 126/84/36 179/83/36 127/83/36
f 125/85/36 180/84/36 126/84/36
f 124/86/36 181/85/36 125/85/36
f 123/87/36 182/86/40 124/86/36
f 121/78/36 184/88/36 122/88/36
f 122/88/36 183/87/36 123/87/36
f 85/43/13 135/43/13 134/42/13
f 84/41/44 133/41/44 135/43/44
f 86/42/13 134/42/13 136/44/13
f 87/44/13 136/44/13 137/45/13
f 88/45/13 137/45/13 138/46/13
f 89/46/13 138/46/13 139/47/13
f 83/48/29 140/48/29 133/41/29
f 90/47/13 139/47/13 141/49/13
f 91/49/13 141/49/13 142/50/13
f 92/50/13 142/50/13 143/51/13
f 93/51/13 143/51/13 144/52/13
f 94/52/13 144/52/13 145/53/13
f 95/53/13 145/53/13 146/54/13
f 96/54/13 146/54/13 147/55/13
f 97/55/45 147/55/45 148/31/45
f 98/31/46 148/31/46 149/56/46
f 99/56/47 149/56/47 150/57/47
f 101/58/48 100/57/48 150/57/48
f 101/58/49 151/58/49 152/59/49
f 102/59/50 152/59/50 153/60/50
f 82/61/14 154/61/14 140/48/14
f 103/60/51 153/60/51 155/62/51
f 104/62/52 155/62/52 156/63/52
f 105/63/53 156/63/53 157/64/53
f 106/64/54 157/64/54 158/65/54
f 108/66/55 107/65/55 158/65/55
f 108/66/56 159/66/56 160/67/56
f 109/67/15 160/67/15 161/68/15
f 110/68/15 161/68/15 162/69/15
f 111/69/15 162/69/15 163/70/15
f 112/70/15 163/70/15 164/71/15
f 113/71/15 164/71/15 165/72/15
f 114/72/15 165/72/15 166/17/15
f 115/17/15 166/17/15 167/73/15
f 116/73/15 167/73/15 168/74/15
f 82/61/29 81/3/29 169/3/29
f 117/74/15 168/74/15 170/75/15
f 119/76/15 118/75/15 170/75/15
f 119/76/15 171/76/15 172/77/15
f 120/77/15 172/77/15 173/78/15
f 132/1/36 174/1/36 169/3/36
f 131/79/36 175/79/36 174/1/36
f 130/80/36 176/80/36 175/79/36
f 129/81/36 177/81/36 176/80/36
f 128/82/36 178/82/36 177/81/36
f 127/83/36 179/83/36 178/82/36
f 126/84/36 180/84/36 179/83/36
f 125/85/36 181/85/36 180/84/36
f 124/86/36 182/86/40 181/85/36
f 123/87/36 183/87/36 182/86/40
f 121/78/36 173/78/36 184/88/36
f 122/88/36 184/88/36 183/87/36
